<svg width="533" height="219" viewBox="0 0 533 219" fill="none" xmlns="http://www.w3.org/2000/svg">
<path d="M134.186 141.274C134.186 141.274 181.14 233.077 286.568 27.2637C286.568 27.2637 192.007 186.947 134.186 141.274Z" fill="#FFCD00"/>
<path d="M148.312 165.626C148.312 165.626 197.481 251.25 284.344 57.793C284.344 57.793 202.271 206.026 148.312 165.635V165.626Z" fill="#28272C"/>
<path d="M277.758 184.501H241.897L218.103 147.598L243.038 131.559L277.758 184.501Z" fill="#28272C"/>
<path d="M230.668 112.703L206.074 128.801L200.904 120.918L200.767 120.713L172.623 77.0581L171.647 75.5672L206.143 75.2944L230.668 112.703Z" fill="#FFCD00"/>
<path d="M402.262 57.9795H366.509L343.775 184.656H379.967L383.412 164.387H395.98L402.059 129.526H389.494L402.262 57.9795ZM344.841 107.691L353.763 57.9795H333.958L289.976 139.051L285.516 164.387H334.666L340.921 129.526H331.933L344.841 107.691Z" fill="#28272C"/>
<path d="M344.841 107.691L353.763 57.9795H333.958L289.976 139.051L285.516 164.387H334.666L340.921 129.526H331.933L344.841 107.691Z" fill="#FFCD00"/>
<path d="M48.3257 88.9375C45.4294 88.9375 43.0815 86.5896 43.0815 83.6934C43.0815 80.7971 45.4294 78.4492 48.3257 78.4492C51.2219 78.4492 53.5698 80.7971 53.5698 83.6934C53.5698 86.5896 51.2219 88.9375 48.3257 88.9375Z" fill="#28272C"/>
<path d="M34.8411 100.924C29.8761 100.924 25.8511 97.0669 25.8511 92.3087C25.8511 87.5506 29.8761 83.6934 34.8411 83.6934C39.8061 83.6934 43.8311 87.5506 43.8311 92.3087C43.8311 97.0669 39.8061 100.924 34.8411 100.924Z" fill="#28272C"/>
<path d="M24.7271 108.416C22.0377 108.416 19.8576 106.403 19.8576 103.921C19.8576 101.438 22.0377 99.4258 24.7271 99.4258C27.4165 99.4258 29.5967 101.438 29.5967 103.921C29.5967 106.403 27.4165 108.416 24.7271 108.416Z" fill="#28272C"/>
<path d="M23.1152 123.141C19.9237 123.141 17.3364 120.553 17.3364 117.362C17.3364 114.17 19.9237 111.583 23.1152 111.583C26.3068 111.583 28.894 114.17 28.894 117.362C28.894 120.553 26.3068 123.141 23.1152 123.141Z" fill="#28272C"/>
<path d="M26.2671 141.529C23.0755 141.529 20.4883 138.942 20.4883 135.75C20.4883 132.558 23.0755 129.971 26.2671 129.971C29.4586 129.971 32.0459 132.558 32.0459 135.75C32.0459 138.942 29.4586 141.529 26.2671 141.529Z" fill="#28272C"/>
<path d="M31.4696 149.619C29.6077 149.619 28.0983 148.11 28.0983 146.248C28.0983 144.386 29.6077 142.877 31.4696 142.877C33.3315 142.877 34.8408 144.386 34.8408 146.248C34.8408 148.11 33.3315 149.619 31.4696 149.619Z" fill="#28272C"/>
<path d="M45.7051 158.34C42.5135 158.34 39.9262 155.753 39.9262 152.561C39.9262 149.369 42.5135 146.782 45.7051 146.782C48.8966 146.782 51.4839 149.369 51.4839 152.561C51.4839 155.753 48.8966 158.34 45.7051 158.34Z" fill="#28272C"/>
<path d="M61.0617 160.857C58.5792 160.857 56.5667 158.845 56.5667 156.362C56.5667 153.88 58.5792 151.867 61.0617 151.867C63.5442 151.867 65.5566 153.88 65.5566 156.362C65.5566 158.845 63.5442 160.857 61.0617 160.857Z" fill="#28272C"/>
<path d="M80.9038 158.34C77.7122 158.34 75.125 155.753 75.125 152.561C75.125 149.369 77.7122 146.782 80.9038 146.782C84.0954 146.782 86.6826 149.369 86.6826 152.561C86.6826 155.753 84.0954 158.34 80.9038 158.34Z" fill="#28272C"/>
<path d="M98.2402 137.326C95.0487 137.326 92.4614 134.738 92.4614 131.547C92.4614 128.355 95.0487 125.768 98.2402 125.768C101.432 125.768 104.019 128.355 104.019 131.547C104.019 134.738 101.432 137.326 98.2402 137.326Z" fill="#28272C"/>
<path d="M104.018 120.515C100.827 120.515 98.2392 117.927 98.2392 114.736C98.2392 111.544 100.827 108.957 104.018 108.957C107.21 108.957 109.797 111.544 109.797 114.736C109.797 117.927 107.21 120.515 104.018 120.515Z" fill="#28272C"/>
<path d="M95.1491 111.413C91.2184 111.413 88.032 108.226 88.032 104.296C88.032 100.365 91.2184 97.1787 95.1491 97.1787C99.0797 97.1787 102.266 100.365 102.266 104.296C102.266 108.226 99.0797 111.413 95.1491 111.413Z" fill="#28272C"/>
<path d="M90.8852 96.874C87.6937 96.874 85.1064 94.2868 85.1064 91.0952C85.1064 87.9037 87.6937 85.3164 90.8852 85.3164C94.0768 85.3164 96.6641 87.9037 96.6641 91.0952C96.6641 94.2868 94.0768 96.874 90.8852 96.874Z" fill="#28272C"/>
<path d="M77.7515 95.2979C74.5599 95.2979 71.9726 92.7106 71.9726 89.5191C71.9726 86.3275 74.5599 83.7402 77.7515 83.7402C80.943 83.7402 83.5303 86.3275 83.5303 89.5191C83.5303 92.7106 80.943 95.2979 77.7515 95.2979Z" fill="#28272C"/>
<path d="M63.5669 92.1455C60.3753 92.1455 57.7881 89.5583 57.7881 86.3667C57.7881 83.1752 60.3753 80.5879 63.5669 80.5879C66.7584 80.5879 69.3457 83.1752 69.3457 86.3667C69.3457 89.5583 66.7584 92.1455 63.5669 92.1455Z" fill="#28272C"/>
<path d="M47.2812 75.3345C44.0897 75.3345 41.5024 72.7472 41.5024 69.5557C41.5024 66.3641 44.0897 63.7769 47.2812 63.7769C50.4728 63.7769 53.0601 66.3641 53.0601 69.5557C53.0601 72.7472 50.4728 75.3345 47.2812 75.3345Z" fill="#28272C"/>
<path d="M36.5116 81.6388C33.7553 81.6388 31.5208 79.4044 31.5208 76.648C31.5208 73.8917 33.7553 71.6572 36.5116 71.6572C39.268 71.6572 41.5024 73.8917 41.5024 76.648C41.5024 79.4044 39.268 81.6388 36.5116 81.6388Z" fill="#28272C"/>
<path d="M24.4291 85.3156C21.6728 85.3156 19.4383 83.0811 19.4383 80.3248C19.4383 77.5684 21.6728 75.334 24.4291 75.334C27.1855 75.334 29.4199 77.5684 29.4199 80.3248C29.4199 83.0811 27.1855 85.3156 24.4291 85.3156Z" fill="#28272C"/>
<path d="M17.2355 97.9275C13.3049 97.9275 10.1184 94.741 10.1184 90.8104C10.1184 86.8798 13.3049 83.6934 17.2355 83.6934C21.1661 83.6934 24.3525 86.8798 24.3525 90.8104C24.3525 94.741 21.1661 97.9275 17.2355 97.9275Z" fill="#28272C"/>
<path d="M10.333 109.485C7.14144 109.485 4.55418 106.898 4.55418 103.707C4.55418 100.515 7.14144 97.9277 10.333 97.9277C13.5246 97.9277 16.1118 100.515 16.1118 103.707C16.1118 106.898 13.5246 109.485 10.333 109.485Z" fill="#28272C"/>
<path d="M7.88036 125.768C4.68881 125.768 2.10154 123.18 2.10154 119.989C2.10154 116.797 4.68881 114.21 7.88036 114.21C11.0719 114.21 13.6592 116.797 13.6592 119.989C13.6592 123.18 11.0719 125.768 7.88036 125.768Z" fill="#28272C"/>
<path d="M13.4895 139.881C11.2138 139.881 9.36906 138.036 9.36906 135.761C9.36906 133.485 11.2138 131.64 13.4895 131.64C15.7651 131.64 17.6099 133.485 17.6099 135.761C17.6099 138.036 15.7651 139.881 13.4895 139.881Z" fill="#28272C"/>
<path d="M18.3591 154.115C14.6353 154.115 11.6166 151.096 11.6166 147.372C11.6166 143.649 14.6353 140.63 18.3591 140.63C22.0829 140.63 25.1016 143.649 25.1016 147.372C25.1016 151.096 22.0829 154.115 18.3591 154.115Z" fill="#28272C"/>
<path d="M20.6066 164.603C18.1241 164.603 16.1116 162.59 16.1116 160.108C16.1116 157.625 18.1241 155.613 20.6066 155.613C23.0891 155.613 25.1016 157.625 25.1016 160.108C25.1016 162.59 23.0891 164.603 20.6066 164.603Z" fill="#28272C"/>
<path d="M6.3727 147.372C3.89019 147.372 1.87772 145.359 1.87772 142.877C1.87772 140.394 3.89019 138.382 6.3727 138.382C8.8552 138.382 10.8677 140.394 10.8677 142.877C10.8677 145.359 8.8552 147.372 6.3727 147.372Z" fill="#28272C"/>
<path d="M38.5871 171.345C36.1045 171.345 34.0921 169.332 34.0921 166.85C34.0921 164.367 36.1045 162.355 38.5871 162.355C41.0696 162.355 43.082 164.367 43.082 166.85C43.082 169.332 41.0696 171.345 38.5871 171.345Z" fill="#28272C"/>
<path d="M31.8442 163.104C30.1892 163.104 28.8475 161.762 28.8475 160.107C28.8475 158.452 30.1892 157.111 31.8442 157.111C33.4992 157.111 34.8408 158.452 34.8408 160.107C34.8408 161.762 33.4992 163.104 31.8442 163.104Z" fill="#28272C"/>
<path d="M51.3221 171.346C48.0121 171.346 45.3288 168.662 45.3288 165.352C45.3288 162.042 48.0121 159.359 51.3221 159.359C54.6321 159.359 57.3154 162.042 57.3154 165.352C57.3154 168.662 54.6321 171.346 51.3221 171.346Z" fill="#28272C"/>
<path d="M46.4931 181.98C43.7367 181.98 41.5023 179.745 41.5023 176.989C41.5023 174.233 43.7367 171.998 46.4931 171.998C49.2494 171.998 51.4839 174.233 51.4839 176.989C51.4839 179.745 49.2494 181.98 46.4931 181.98Z" fill="#28272C"/>
<path d="M63.3046 178.828C60.5483 178.828 58.3138 176.593 58.3138 173.837C58.3138 171.081 60.5483 168.846 63.3046 168.846C66.061 168.846 68.2954 171.081 68.2954 173.837C68.2954 176.593 66.061 178.828 63.3046 178.828Z" fill="#28272C"/>
<path d="M74.0738 171.998C70.302 171.998 67.2443 168.94 67.2443 165.168C67.2443 161.397 70.302 158.339 74.0738 158.339C77.8456 158.339 80.9033 161.397 80.9033 165.168C80.9033 168.94 77.8456 171.998 74.0738 171.998Z" fill="#28272C"/>
<path d="M86.6827 77.4359C82.9109 77.4359 79.8532 74.3782 79.8532 70.6064C79.8532 66.8345 82.9109 63.7769 86.6827 63.7769C90.4545 63.7769 93.5122 66.8345 93.5122 70.6064C93.5122 74.3782 90.4545 77.4359 86.6827 77.4359Z" fill="#28272C"/>
<path d="M105.069 88.993C101.298 88.993 98.2399 85.9353 98.2399 82.1635C98.2399 78.3917 101.298 75.334 105.069 75.334C108.841 75.334 111.899 78.3917 111.899 82.1635C111.899 85.9353 108.841 88.993 105.069 88.993Z" fill="#28272C"/>
<path d="M84.8437 181.454C81.7972 181.454 79.3276 178.984 79.3276 175.938C79.3276 172.892 81.7972 170.422 84.8437 170.422C87.8902 170.422 90.3599 172.892 90.3599 175.938C90.3599 178.984 87.8902 181.454 84.8437 181.454Z" fill="#28272C"/>
<path d="M95.351 171.473C92.3046 171.473 89.8349 169.004 89.8349 165.957C89.8349 162.911 92.3046 160.441 95.351 160.441C98.3975 160.441 100.867 162.911 100.867 165.957C100.867 169.004 98.3975 171.473 95.351 171.473Z" fill="#28272C"/>
<path d="M94.3003 157.815C91.2538 157.815 88.7841 155.345 88.7841 152.298C88.7841 149.252 91.2538 146.782 94.3003 146.782C97.3467 146.782 99.8164 149.252 99.8164 152.298C99.8164 155.345 97.3467 157.815 94.3003 157.815Z" fill="#28272C"/>
<path d="M112.379 159.359C108.448 159.359 105.262 156.173 105.262 152.242C105.262 148.311 108.448 145.125 112.379 145.125C116.31 145.125 119.496 148.311 119.496 152.242C119.496 156.173 116.31 159.359 112.379 159.359Z" fill="#28272C"/>
<path d="M113.213 138.901C110.166 138.901 107.697 136.432 107.697 133.385C107.697 130.339 110.166 127.869 113.213 127.869C116.259 127.869 118.729 130.339 118.729 133.385C118.729 136.432 116.259 138.901 113.213 138.901Z" fill="#28272C"/>
<path d="M117.415 126.818C114.369 126.818 111.899 124.349 111.899 121.302C111.899 118.256 114.369 115.786 117.415 115.786C120.461 115.786 122.931 118.256 122.931 121.302C122.931 124.349 120.461 126.818 117.415 126.818Z" fill="#28272C"/>
<path d="M117.415 112.634C114.369 112.634 111.899 110.165 111.899 107.118C111.899 104.072 114.369 101.602 117.415 101.602C120.461 101.602 122.931 104.072 122.931 107.118C122.931 110.165 120.461 112.634 117.415 112.634Z" fill="#28272C"/>
<path d="M108.484 100.551C105.437 100.551 102.968 98.0812 102.968 95.0347C102.968 91.9882 105.437 89.5186 108.484 89.5186C111.53 89.5186 114 91.9882 114 95.0347C114 98.0812 111.53 100.551 108.484 100.551Z" fill="#28272C"/>
<path d="M73.8115 80.5875C70.765 80.5875 68.2954 78.1178 68.2954 75.0713C68.2954 72.0248 70.765 69.5552 73.8115 69.5552C76.858 69.5552 79.3276 72.0248 79.3276 75.0713C79.3276 78.1178 76.858 80.5875 73.8115 80.5875Z" fill="#28272C"/>
<path d="M59.5633 79.1987C57.4945 79.1987 55.8174 77.5216 55.8174 75.4529C55.8174 73.3841 57.4945 71.707 59.5633 71.707C61.632 71.707 63.3091 73.3841 63.3091 75.4529C63.3091 77.5216 61.632 79.1987 59.5633 79.1987Z" fill="#28272C"/>
<path d="M71.9726 67.9796C69.0712 67.9796 66.7191 65.6275 66.7191 62.7261C66.7191 59.8247 69.0712 57.4727 71.9726 57.4727C74.874 57.4727 77.2261 59.8247 77.2261 62.7261C77.2261 65.6275 74.874 67.9796 71.9726 67.9796Z" fill="#28272C"/>
<path d="M102.641 147.372C100.365 147.372 98.5204 145.527 98.5204 143.251C98.5204 140.976 100.365 139.131 102.641 139.131C104.916 139.131 106.761 140.976 106.761 143.251C106.761 145.527 104.916 147.372 102.641 147.372Z" fill="#28272C"/>
<path d="M105.332 166.219C103.156 166.219 101.392 164.455 101.392 162.279C101.392 160.103 103.156 158.339 105.332 158.339C107.508 158.339 109.272 160.103 109.272 162.279C109.272 164.455 107.508 166.219 105.332 166.219Z" fill="#28272C"/>
<path d="M121.744 146.622C119.676 146.622 117.999 144.945 117.999 142.877C117.999 140.808 119.676 139.131 121.744 139.131C123.813 139.131 125.49 140.808 125.49 142.877C125.49 144.945 123.813 146.622 121.744 146.622Z" fill="#28272C"/>
<path d="M125.296 135.749C123.12 135.749 121.356 133.985 121.356 131.809C121.356 129.633 123.12 127.869 125.296 127.869C127.472 127.869 129.236 129.633 129.236 131.809C129.236 133.985 127.472 135.749 125.296 135.749Z" fill="#28272C"/>
<path d="M116.364 91.095C114.188 91.095 112.424 89.331 112.424 87.1549C112.424 84.9789 114.188 83.2148 116.364 83.2148C118.54 83.2148 120.304 84.9789 120.304 87.1549C120.304 89.331 118.54 91.095 116.364 91.095Z" fill="#28272C"/>
<path d="M99.0277 74.284C96.8516 74.284 95.0876 72.52 95.0876 70.3439C95.0876 68.1679 96.8516 66.4038 99.0277 66.4038C101.204 66.4038 102.968 68.1679 102.968 70.3439C102.968 72.52 101.204 74.284 99.0277 74.284Z" fill="#28272C"/>
<path d="M58.0506 67.9798C55.8746 67.9798 54.1105 66.2158 54.1105 64.0397C54.1105 61.8637 55.8746 60.0996 58.0506 60.0996C60.2267 60.0996 61.9907 61.8637 61.9907 64.0397C61.9907 66.2158 60.2267 67.9798 58.0506 67.9798Z" fill="#28272C"/>
<path d="M3.94027 135.224C1.76421 135.224 0.000171185 133.46 0.000171185 131.284C0.000171185 129.108 1.76421 127.344 3.94027 127.344C6.11633 127.344 7.88037 129.108 7.88037 131.284C7.88037 133.46 6.11633 135.224 3.94027 135.224Z" fill="#28272C"/>
<path d="M41.2396 145.205C39.0635 145.205 37.2995 143.441 37.2995 141.265C37.2995 139.089 39.0635 137.325 41.2396 137.325C43.4156 137.325 45.1797 139.089 45.1797 141.265C45.1797 143.441 43.4156 145.205 41.2396 145.205Z" fill="#28272C"/>
<path d="M31.2581 129.97C29.0821 129.97 27.318 128.206 27.318 126.03C27.318 123.854 29.0821 122.09 31.2581 122.09C33.4342 122.09 35.1982 123.854 35.1982 126.03C35.1982 128.206 33.4342 129.97 31.2581 129.97Z" fill="#28272C"/>
<path d="M34.41 119.989C32.2339 119.989 30.4699 118.225 30.4699 116.049C30.4699 113.873 32.2339 112.109 34.41 112.109C36.5861 112.109 38.3501 113.873 38.3501 116.049C38.3501 118.225 36.5861 119.989 34.41 119.989Z" fill="#28272C"/>
<path d="M34.8408 109.165C33.1857 109.165 31.8441 107.824 31.8441 106.169C31.8441 104.514 33.1857 103.172 34.8408 103.172C36.4958 103.172 37.8374 104.514 37.8374 106.169C37.8374 107.824 36.4958 109.165 34.8408 109.165Z" fill="#28272C"/>
<path d="M47.5766 98.6764C45.9216 98.6764 44.5799 97.3348 44.5799 95.6798C44.5799 94.0248 45.9216 92.6831 47.5766 92.6831C49.2316 92.6831 50.5732 94.0248 50.5732 95.6798C50.5732 97.3348 49.2316 98.6764 47.5766 98.6764Z" fill="#28272C"/>
<path d="M92.5264 144.376C91.2852 144.376 90.2789 143.37 90.2789 142.128C90.2789 140.887 91.2852 139.881 92.5264 139.881C93.7677 139.881 94.7739 140.887 94.7739 142.128C94.7739 143.37 93.7677 144.376 92.5264 144.376Z" fill="#28272C"/>
<path d="M85.6315 164.118C84.471 164.118 83.5301 163.177 83.5301 162.016C83.5301 160.856 84.471 159.915 85.6315 159.915C86.7921 159.915 87.7329 160.856 87.7329 162.016C87.7329 163.177 86.7921 164.118 85.6315 164.118Z" fill="#28272C"/>
<path d="M69.3464 154.137C68.1858 154.137 67.245 153.196 67.245 152.035C67.245 150.875 68.1858 149.934 69.3464 149.934C70.5069 149.934 71.4478 150.875 71.4478 152.035C71.4478 153.196 70.5069 154.137 69.3464 154.137Z" fill="#28272C"/>
<path d="M71.9723 184.081C70.8118 184.081 69.871 183.14 69.871 181.979C69.871 180.819 70.8118 179.878 71.9723 179.878C73.1329 179.878 74.0737 180.819 74.0737 181.979C74.0737 183.14 73.1329 184.081 71.9723 184.081Z" fill="#28272C"/>
<path d="M73.0485 177.338C72.221 177.338 71.5502 176.668 71.5502 175.84C71.5502 175.013 72.221 174.342 73.0485 174.342C73.876 174.342 74.5469 175.013 74.5469 175.84C74.5469 176.668 73.876 177.338 73.0485 177.338Z" fill="#28272C"/>
<path d="M58.839 183.556C57.6785 183.556 56.7376 182.615 56.7376 181.454C56.7376 180.294 57.6785 179.353 58.839 179.353C59.9996 179.353 60.9404 180.294 60.9404 181.454C60.9404 182.615 59.9996 183.556 58.839 183.556Z" fill="#28272C"/>
<path d="M33.6222 175.676C32.4617 175.676 31.5209 174.735 31.5209 173.575C31.5209 172.414 32.4617 171.473 33.6222 171.473C34.7828 171.473 35.7236 172.414 35.7236 173.575C35.7236 174.735 34.7828 175.676 33.6222 175.676Z" fill="#28272C"/>
<path d="M27.7239 169.098C27.1033 169.098 26.6002 168.594 26.6002 167.974C26.6002 167.353 27.1033 166.85 27.7239 166.85C28.3445 166.85 28.8477 167.353 28.8477 167.974C28.8477 168.594 28.3445 169.098 27.7239 169.098Z" fill="#28272C"/>
<path d="M27.7239 154.115C27.1033 154.115 26.6002 153.612 26.6002 152.991C26.6002 152.37 27.1033 151.867 27.7239 151.867C28.3445 151.867 28.8477 152.37 28.8477 152.991C28.8477 153.612 28.3445 154.115 27.7239 154.115Z" fill="#28272C"/>
<path d="M35.2155 154.864C34.1811 154.864 33.3426 154.025 33.3426 152.991C33.3426 151.957 34.1811 151.118 35.2155 151.118C36.2498 151.118 37.0884 151.957 37.0884 152.991C37.0884 154.025 36.2498 154.864 35.2155 154.864Z" fill="#28272C"/>
<path d="M13.4895 127.893C12.8689 127.893 12.3658 127.39 12.3658 126.77C12.3658 126.149 12.8689 125.646 13.4895 125.646C14.1102 125.646 14.6133 126.149 14.6133 126.77C14.6133 127.39 14.1102 127.893 13.4895 127.893Z" fill="#28272C"/>
<path d="M9.45672 153.611C8.29615 153.611 7.35533 152.67 7.35533 151.51C7.35533 150.349 8.29615 149.408 9.45672 149.408C10.6173 149.408 11.5581 150.349 11.5581 151.51C11.5581 152.67 10.6173 153.611 9.45672 153.611Z" fill="#28272C"/>
<path d="M19.1751 131.021C17.2892 131.021 15.7603 129.493 15.7603 127.607C15.7603 125.721 17.2892 124.192 19.1751 124.192C21.061 124.192 22.5898 125.721 22.5898 127.607C22.5898 129.493 21.061 131.021 19.1751 131.021Z" fill="#28272C"/>
<path d="M13.6589 114.735C12.4983 114.735 11.5575 113.794 11.5575 112.634C11.5575 111.473 12.4983 110.532 13.6589 110.532C14.8194 110.532 15.7603 111.473 15.7603 112.634C15.7603 113.794 14.8194 114.735 13.6589 114.735Z" fill="#28272C"/>
<path d="M28.3688 72.7077C27.2083 72.7077 26.2674 71.7668 26.2674 70.6063C26.2674 69.4457 27.2083 68.5049 28.3688 68.5049C29.5294 68.5049 30.4702 69.4457 30.4702 70.6063C30.4702 71.7668 29.5294 72.7077 28.3688 72.7077Z" fill="#28272C"/>
<path d="M54.3191 93.4327C53.4915 93.4327 52.8207 92.7619 52.8207 91.9344C52.8207 91.1069 53.4915 90.436 54.3191 90.436C55.1466 90.436 55.8174 91.1069 55.8174 91.9344C55.8174 92.7619 55.1466 93.4327 54.3191 93.4327Z" fill="#28272C"/>
<path d="M36.485 135.843C35.3245 135.843 34.3836 134.902 34.3836 133.742C34.3836 132.581 35.3245 131.64 36.485 131.64C37.6456 131.64 38.5864 132.581 38.5864 133.742C38.5864 134.902 37.6456 135.843 36.485 135.843Z" fill="#28272C"/>
<path d="M85.6315 84.2653C84.471 84.2653 83.5301 83.3245 83.5301 82.1639C83.5301 81.0033 84.471 80.0625 85.6315 80.0625C86.7921 80.0625 87.7329 81.0033 87.7329 82.1639C87.7329 83.3245 86.7921 84.2653 85.6315 84.2653Z" fill="#28272C"/>
<path d="M93.5114 82.6891C92.3508 82.6891 91.41 81.7483 91.41 80.5877C91.41 79.4272 92.3508 78.4863 93.5114 78.4863C94.672 78.4863 95.6128 79.4272 95.6128 80.5877C95.6128 81.7483 94.672 82.6891 93.5114 82.6891Z" fill="#28272C"/>
<path d="M118.729 98.4499C117.568 98.4499 116.627 97.509 116.627 96.3485C116.627 95.1879 117.568 94.2471 118.729 94.2471C119.889 94.2471 120.83 95.1879 120.83 96.3485C120.83 97.509 119.889 98.4499 118.729 98.4499Z" fill="#28272C"/>
<path d="M106.121 127.87C104.96 127.87 104.019 126.929 104.019 125.768C104.019 124.608 104.96 123.667 106.121 123.667C107.281 123.667 108.222 124.608 108.222 125.768C108.222 126.929 107.281 127.87 106.121 127.87Z" fill="#28272C"/>
<path d="M127.363 124.148C125.915 124.148 124.741 122.974 124.741 121.526C124.741 120.078 125.915 118.904 127.363 118.904C128.811 118.904 129.985 120.078 129.985 121.526C129.985 122.974 128.811 124.148 127.363 124.148Z" fill="#28272C"/>
<path d="M125.559 113.685C124.398 113.685 123.457 112.744 123.457 111.583C123.457 110.423 124.398 109.482 125.559 109.482C126.719 109.482 127.66 110.423 127.66 111.583C127.66 112.744 126.719 113.685 125.559 113.685Z" fill="#28272C"/>
<path d="M124.366 102.422C123.746 102.422 123.243 101.919 123.243 101.299C123.243 100.678 123.746 100.175 124.366 100.175C124.987 100.175 125.49 100.678 125.49 101.299C125.49 101.919 124.987 102.422 124.366 102.422Z" fill="#28272C"/>
<path d="M440.843 160.758C438.401 159.968 435.781 161.307 434.99 163.749C434.2 166.192 435.539 168.812 437.981 169.603C440.423 170.393 443.044 169.054 443.834 166.612C444.625 164.169 443.286 161.549 440.843 160.758Z" fill="#28272C"/>
<path d="M431.371 113.394C426.594 111.849 421.469 114.468 419.923 119.244C418.378 124.021 420.997 129.146 425.773 130.692C430.55 132.238 435.675 129.619 437.221 124.842C438.767 120.065 436.148 114.94 431.371 113.394Z" fill="#28272C"/>
<path d="M433.632 84.4921C430.287 83.4097 426.698 85.2436 425.616 88.5882C424.533 91.9329 426.367 95.5217 429.712 96.6041C433.057 97.6865 436.646 95.8526 437.728 92.5079C438.81 89.1633 436.976 85.5745 433.632 84.4921Z" fill="#28272C"/>
<path d="M440.451 57.6313C438.944 57.1436 437.327 57.97 436.839 59.4771C436.351 60.9842 437.178 62.6014 438.685 63.0891C440.192 63.5769 441.809 62.7505 442.297 61.2434C442.784 59.7362 441.958 58.1191 440.451 57.6313Z" fill="#28272C"/>
<path d="M432.348 137.487C427.088 133.6 419.672 134.712 415.785 139.972C411.897 145.232 413.01 152.648 418.269 156.535C423.529 160.423 430.945 159.31 434.833 154.05C438.72 148.79 437.608 141.375 432.348 137.487Z" fill="#28272C"/>
<path d="M431.308 101.501C429.309 100.023 426.49 100.446 425.012 102.445C423.535 104.445 423.957 107.264 425.957 108.741C427.956 110.219 430.775 109.796 432.253 107.797C433.731 105.797 433.308 102.978 431.308 101.501Z" fill="#28272C"/>
<path d="M442.977 66.1146C438.899 63.101 433.151 63.9634 430.137 68.0408C427.124 72.1181 427.986 77.8664 432.064 80.8799C436.141 83.8935 441.889 83.0311 444.903 78.9537C447.916 74.8764 447.054 69.1281 442.977 66.1146Z" fill="#28272C"/>
<path d="M452.006 164.556C450.164 163.959 448.187 164.969 447.591 166.812C446.995 168.654 448.005 170.631 449.847 171.227C451.689 171.823 453.666 170.813 454.262 168.971C454.858 167.128 453.848 165.152 452.006 164.556Z" fill="#28272C"/>
<path d="M458.406 60.8261C456.564 60.2299 454.587 61.2401 453.991 63.0823C453.394 64.9246 454.405 66.9013 456.247 67.4975C458.089 68.0937 460.066 67.0836 460.662 65.2413C461.258 63.3991 460.248 61.4223 458.406 60.8261Z" fill="#28272C"/>
<path d="M449.621 62.8701C448.461 62.4946 447.215 63.1309 446.84 64.2914C446.464 65.4519 447.101 66.6971 448.261 67.0727C449.422 67.4482 450.667 66.8119 451.042 65.6514C451.418 64.4909 450.782 63.2457 449.621 62.8701Z" fill="#28272C"/>
<path d="M460.386 171.266C461.855 171.595 462.778 173.051 462.45 174.52C462.121 175.988 460.665 176.912 459.196 176.583C457.728 176.255 456.804 174.798 457.133 173.33C457.461 171.862 458.918 170.938 460.386 171.266Z" fill="#28272C"/>
<path d="M494.021 166.767C496.243 167.264 497.641 169.469 497.144 171.691C496.647 173.913 494.442 175.311 492.22 174.814C489.998 174.317 488.599 172.112 489.097 169.89C489.594 167.668 491.799 166.269 494.021 166.767Z" fill="#28272C"/>
<path d="M519.153 144.621C521.375 145.119 522.773 147.323 522.276 149.546C521.779 151.768 519.574 153.166 517.352 152.669C515.13 152.171 513.731 149.967 514.229 147.745C514.726 145.522 516.931 144.124 519.153 144.621Z" fill="#28272C"/>
<path d="M529.475 113.067C531.698 113.564 533.096 115.769 532.599 117.991C532.101 120.214 529.897 121.612 527.675 121.115C525.452 120.617 524.054 118.413 524.551 116.19C525.049 113.968 527.253 112.57 529.475 113.067Z" fill="#28272C"/>
<path d="M511.409 87.9085C512.927 88.2484 513.883 89.7548 513.543 91.2732C513.203 92.7917 511.697 93.747 510.178 93.4072C508.66 93.0674 507.704 91.561 508.044 90.0426C508.384 88.5241 509.89 87.5687 511.409 87.9085Z" fill="#28272C"/>
<path d="M512.253 81.3964C513.321 81.6355 513.993 82.6951 513.754 83.7631C513.515 84.8312 512.456 85.5032 511.388 85.2642C510.319 85.0252 509.647 83.9656 509.886 82.8975C510.125 81.8295 511.185 81.1574 512.253 81.3964Z" fill="#28272C"/>
<path d="M476.782 170.813C479.047 170.578 481.074 172.224 481.309 174.489C481.544 176.754 479.898 178.781 477.633 179.016C475.368 179.25 473.341 177.605 473.106 175.34C472.872 173.075 474.517 171.048 476.782 170.813Z" fill="#28272C"/>
<path d="M506.743 150.882C512.515 150.284 517.679 154.477 518.277 160.249C518.876 166.02 514.682 171.184 508.911 171.782C503.14 172.381 497.976 168.188 497.377 162.416C496.779 156.645 500.972 151.481 506.743 150.882Z" fill="#28272C"/>
<path d="M524.191 128.245C526.456 128.01 528.482 129.656 528.717 131.921C528.952 134.186 527.306 136.213 525.041 136.448C522.776 136.683 520.75 135.037 520.515 132.772C520.28 130.507 521.925 128.48 524.191 128.245Z" fill="#28272C"/>
<path d="M520.32 90.9279C524.794 90.464 528.797 93.7146 529.261 98.1884C529.725 102.662 526.474 106.665 522 107.129C517.527 107.593 513.524 104.343 513.06 99.8685C512.596 95.3947 515.847 91.3919 520.32 90.9279Z" fill="#28272C"/>
<path d="M502.574 73.0614C504.349 72.8773 505.937 74.167 506.121 75.9419C506.305 77.7169 505.016 79.3049 503.241 79.489C501.466 79.6731 499.878 78.3834 499.694 76.6085C499.509 74.8336 500.799 73.2455 502.574 73.0614Z" fill="#28272C"/>
<path d="M494.4 76.8246C495.583 76.7019 496.642 77.5616 496.765 78.7448C496.887 79.928 496.028 80.9865 494.844 81.1092C493.661 81.2319 492.603 80.3723 492.48 79.1891C492.357 78.006 493.217 76.9473 494.4 76.8246Z" fill="#28272C"/>
<path d="M472.413 62.2354C477.07 61.7524 481.237 65.1363 481.72 69.7936C482.203 74.4508 478.819 78.6177 474.162 79.1007C469.504 79.5837 465.337 76.1998 464.854 71.5426C464.372 66.8854 467.755 62.7184 472.413 62.2354Z" fill="#28272C"/>
<path d="M460.463 75.4817C463.212 75.1966 465.671 77.194 465.956 79.943C466.242 82.6921 464.244 85.1517 461.495 85.4368C458.746 85.7219 456.286 83.7245 456.001 80.9754C455.716 78.2264 457.714 75.7668 460.463 75.4817Z" fill="#28272C"/>
<path d="M481.233 78.1153C482.909 78.4904 483.964 80.1534 483.588 81.8297C483.213 83.506 481.55 84.5608 479.874 84.1856C478.198 83.8105 477.143 82.1475 477.518 80.4712C477.893 78.7949 479.556 77.7402 481.233 78.1153Z" fill="#28272C"/>
<path d="M450.228 156.504C451.904 156.88 452.959 158.543 452.584 160.219C452.209 161.895 450.546 162.95 448.87 162.575C447.193 162.2 446.139 160.537 446.514 158.86C446.889 157.184 448.552 156.129 450.228 156.504Z" fill="#28272C"/>
<path d="M463.376 157.909C465.052 158.284 466.107 159.947 465.732 161.624C465.357 163.3 463.694 164.355 462.018 163.98C460.341 163.604 459.287 161.941 459.662 160.265C460.037 158.589 461.7 157.534 463.376 157.909Z" fill="#28272C"/>
<path d="M477.036 154.623C481.006 155.511 483.509 159.428 482.627 163.371C481.744 167.313 477.811 169.789 473.841 168.901C469.871 168.012 467.368 164.096 468.25 160.153C469.133 156.211 473.066 153.735 477.036 154.623Z" fill="#28272C"/>
<path d="M490.745 157.847C492.564 158.254 493.708 160.058 493.301 161.876C492.894 163.695 491.09 164.839 489.272 164.432C487.453 164.025 486.309 162.221 486.716 160.403C487.123 158.584 488.927 157.44 490.745 157.847Z" fill="#28272C"/>
<path d="M495.197 154.46C495.687 154.57 495.995 155.055 495.885 155.545C495.776 156.034 495.29 156.342 494.801 156.233C494.311 156.123 494.003 155.638 494.113 155.148C494.222 154.659 494.708 154.351 495.197 154.46Z" fill="#28272C"/>
<path d="M485.656 166.467C486.146 166.576 486.454 167.062 486.344 167.551C486.235 168.041 485.749 168.349 485.26 168.239C484.77 168.13 484.462 167.644 484.572 167.155C484.681 166.665 485.167 166.357 485.656 166.467Z" fill="#28272C"/>
<path d="M459.687 154.902C460.177 155.012 460.485 155.498 460.375 155.987C460.266 156.476 459.78 156.784 459.291 156.675C458.801 156.565 458.493 156.08 458.603 155.59C458.712 155.101 459.198 154.793 459.687 154.902Z" fill="#28272C"/>
<path d="M448.123 152.182C448.612 152.292 448.92 152.777 448.811 153.267C448.701 153.756 448.215 154.064 447.726 153.954C447.237 153.845 446.929 153.359 447.038 152.87C447.148 152.38 447.633 152.072 448.123 152.182Z" fill="#28272C"/>
<path d="M437.359 172.589C437.848 172.699 438.156 173.184 438.046 173.674C437.937 174.163 437.451 174.471 436.962 174.361C436.472 174.252 436.164 173.766 436.274 173.277C436.384 172.787 436.869 172.479 437.359 172.589Z" fill="#28272C"/>
<path d="M460.401 69.3654C460.89 69.475 461.198 69.9605 461.088 70.45C460.979 70.9394 460.493 71.2474 460.004 71.1379C459.514 71.0283 459.206 70.5428 459.316 70.0533C459.426 69.5639 459.911 69.2559 460.401 69.3654Z" fill="#28272C"/>
<path d="M454.245 107.966C454.735 108.075 455.043 108.561 454.933 109.05C454.824 109.54 454.338 109.848 453.849 109.738C453.359 109.629 453.051 109.143 453.161 108.654C453.27 108.164 453.756 107.856 454.245 107.966Z" fill="#28272C"/>
<path d="M452.913 70.7663C453.933 70.9944 454.574 72.0058 454.346 73.0253C454.118 74.0447 453.107 74.6862 452.087 74.4581C451.068 74.2299 450.426 73.2185 450.654 72.1991C450.882 71.1796 451.894 70.5381 452.913 70.7663Z" fill="#28272C"/>
<path d="M437.496 99.2594C437.985 99.369 438.293 99.8545 438.184 100.344C438.074 100.834 437.589 101.142 437.099 101.032C436.61 100.923 436.302 100.437 436.411 99.9473C436.521 99.4579 437.006 99.1499 437.496 99.2594Z" fill="#28272C"/>
<path d="M437.921 111.655C438.786 111.848 439.33 112.706 439.136 113.571C438.943 114.436 438.085 114.98 437.22 114.786C436.355 114.593 435.811 113.735 436.005 112.87C436.198 112.005 437.056 111.461 437.921 111.655Z" fill="#28272C"/>
<path d="M467.065 169.297C467.554 169.407 467.862 169.892 467.752 170.382C467.643 170.871 467.157 171.179 466.668 171.07C466.179 170.96 465.871 170.475 465.98 169.985C466.09 169.496 466.575 169.188 467.065 169.297Z" fill="#28272C"/>
<path d="M507.489 138.832C509.165 139.207 510.22 140.87 509.845 142.547C509.47 144.223 507.807 145.278 506.13 144.903C504.454 144.527 503.399 142.864 503.774 141.188C504.15 139.512 505.813 138.457 507.489 138.832Z" fill="#28272C"/>
<path d="M514.061 123.635C517.868 124.487 520.263 128.263 519.412 132.07C518.56 135.877 514.783 138.272 510.976 137.42C507.169 136.569 504.774 132.792 505.626 128.985C506.478 125.178 510.255 122.783 514.061 123.635Z" fill="#28272C"/>
<path d="M517.431 110.693C520.468 111.373 522.379 114.386 521.7 117.423C521.02 120.46 518.007 122.372 514.97 121.692C511.932 121.012 510.021 117.999 510.701 114.962C511.381 111.925 514.394 110.013 517.431 110.693Z" fill="#28272C"/>
<path d="M511.074 103.113C512.751 103.488 513.805 105.151 513.43 106.827C513.055 108.503 511.392 109.558 509.716 109.183C508.04 108.808 506.985 107.145 507.36 105.469C507.735 103.792 509.398 102.738 511.074 103.113Z" fill="#28272C"/>
<path d="M502.478 93.2178C503.537 93.4549 504.204 94.5057 503.967 95.565C503.73 96.6242 502.679 97.2908 501.62 97.0537C500.56 96.8167 499.894 95.7658 500.131 94.7066C500.368 93.6473 501.419 92.9808 502.478 93.2178Z" fill="#28272C"/>
<path d="M503.119 81.3574C505.452 81.8796 506.92 84.1942 506.398 86.5274C505.876 88.8605 503.562 90.3286 501.228 89.8065C498.895 89.2844 497.427 86.9697 497.949 84.6366C498.471 82.3034 500.786 80.8353 503.119 81.3574Z" fill="#28272C"/>
<path d="M488.97 68.7519C491.303 69.274 492.772 71.5886 492.249 73.9218C491.727 76.2549 489.413 77.723 487.08 77.2009C484.746 76.6788 483.278 74.3641 483.8 72.031C484.323 69.6979 486.637 68.2297 488.97 68.7519Z" fill="#28272C"/>
<path d="M493.124 82.8272C494.8 83.2023 495.855 84.8653 495.48 86.5416C495.105 88.2178 493.442 89.2726 491.766 88.8975C490.089 88.5224 489.035 86.8594 489.41 85.1831C489.785 83.5068 491.448 82.452 493.124 82.8272Z" fill="#28272C"/>
<path d="M477.728 85.1295C479.739 85.5796 481.005 87.575 480.555 89.5863C480.105 91.5976 478.109 92.8632 476.098 92.4131C474.087 91.963 472.821 89.9676 473.271 87.9563C473.721 85.945 475.717 84.6794 477.728 85.1295Z" fill="#28272C"/>
<path d="M467.476 87.4454C469.488 87.8955 470.753 89.8909 470.303 91.9022C469.853 93.9136 467.858 95.1792 465.846 94.7291C463.835 94.2789 462.569 92.2836 463.02 90.2722C463.47 88.2609 465.465 86.9953 467.476 87.4454Z" fill="#28272C"/>
<path d="M470.757 82.0581C471.922 82.3189 472.656 83.4757 472.395 84.6416C472.134 85.8075 470.978 86.541 469.812 86.2801C468.646 86.0192 467.912 84.8626 468.173 83.6967C468.434 82.5308 469.591 81.7972 470.757 82.0581Z" fill="#28272C"/>
<path d="M459.123 86.641C460.633 86.979 461.583 88.4771 461.245 89.9872C460.907 91.4974 459.409 92.4476 457.899 92.1097C456.389 91.7717 455.439 90.2736 455.776 88.7634C456.114 87.2533 457.613 86.3031 459.123 86.641Z" fill="#28272C"/>
<path d="M454.117 99.0551C455.627 99.393 456.578 100.891 456.24 102.401C455.902 103.911 454.404 104.861 452.894 104.524C451.383 104.186 450.433 102.687 450.771 101.177C451.109 99.6674 452.607 98.7171 454.117 99.0551Z" fill="#28272C"/>
<path d="M452.184 77.6783C453.418 77.9544 454.194 79.1783 453.918 80.412C453.642 81.6456 452.418 82.4219 451.184 82.1458C449.951 81.8698 449.174 80.6459 449.451 79.4122C449.727 78.1785 450.951 77.4022 452.184 77.6783Z" fill="#28272C"/>
<path d="M452.794 112.349C454.028 112.625 454.804 113.849 454.528 115.082C454.252 116.316 453.028 117.092 451.794 116.816C450.561 116.54 449.784 115.316 450.06 114.083C450.337 112.849 451.56 112.073 452.794 112.349Z" fill="#28272C"/>
<path d="M450.956 121.693C451.747 121.87 452.245 122.655 452.068 123.447C451.891 124.239 451.106 124.737 450.314 124.56C449.523 124.382 449.024 123.597 449.202 122.806C449.379 122.014 450.164 121.516 450.956 121.693Z" fill="#28272C"/>
<path d="M454.238 151.816C455.503 152.099 456.299 153.354 456.016 154.619C455.733 155.885 454.478 156.681 453.212 156.398C451.947 156.115 451.151 154.859 451.434 153.594C451.717 152.329 452.972 151.533 454.238 151.816Z" fill="#28272C"/>
<path d="M446.905 140.271C448.605 140.651 449.674 142.337 449.294 144.037C448.914 145.736 447.227 146.806 445.528 146.426C443.828 146.045 442.759 144.359 443.139 142.659C443.519 140.96 445.205 139.89 446.905 140.271Z" fill="#28272C"/>
<path d="M443.507 146.749C445.09 147.103 446.086 148.673 445.732 150.257C445.378 151.84 443.807 152.836 442.224 152.482C440.641 152.127 439.645 150.557 439.999 148.974C440.353 147.391 441.924 146.394 443.507 146.749Z" fill="#28272C"/>
<path d="M443.212 154.067C444.18 154.284 444.789 155.243 444.572 156.211C444.356 157.178 443.396 157.787 442.428 157.57C441.461 157.354 440.852 156.394 441.069 155.427C441.285 154.459 442.245 153.851 443.212 154.067Z" fill="#28272C"/>
<path d="M456.144 160.261C457.111 160.478 457.72 161.438 457.503 162.405C457.287 163.373 456.327 163.981 455.36 163.765C454.392 163.548 453.783 162.589 454 161.621C454.216 160.654 455.176 160.045 456.144 160.261Z" fill="#28272C"/>
<path d="M467.079 152.483C468.313 152.759 469.089 153.983 468.813 155.217C468.537 156.45 467.313 157.227 466.079 156.951C464.846 156.674 464.07 155.451 464.346 154.217C464.622 152.983 465.846 152.207 467.079 152.483Z" fill="#28272C"/>
<path d="M485.745 149.338C487.611 149.756 488.786 151.608 488.368 153.474C487.95 155.341 486.099 156.515 484.232 156.098C482.366 155.68 481.191 153.828 481.609 151.962C482.027 150.095 483.878 148.921 485.745 149.338Z" fill="#28272C"/>
<path d="M429.712 161.49C430.783 161.73 431.457 162.793 431.217 163.864C430.977 164.935 429.915 165.609 428.844 165.369C427.773 165.129 427.099 164.067 427.338 162.996C427.578 161.925 428.641 161.251 429.712 161.49Z" fill="#28272C"/>
<path d="M497.491 142.352C500.156 142.948 501.858 145.481 501.292 148.01C500.726 150.539 498.107 152.106 495.442 151.509C492.777 150.913 491.076 148.379 491.642 145.851C492.208 143.322 494.827 141.755 497.491 142.352Z" fill="#28272C"/>
<path d="M500.807 133.818C502.041 134.094 502.817 135.318 502.541 136.551C502.265 137.785 501.041 138.561 499.808 138.285C498.574 138.009 497.798 136.785 498.074 135.552C498.35 134.318 499.574 133.542 500.807 133.818Z" fill="#28272C"/>
<path d="M502.64 125.939C503.664 126.168 504.308 127.184 504.079 128.208C503.85 129.232 502.834 129.876 501.81 129.647C500.786 129.418 500.142 128.402 500.371 127.378C500.6 126.354 501.616 125.71 502.64 125.939Z" fill="#28272C"/>
<path d="M505.752 114.227C507.593 114.639 508.751 116.465 508.339 118.306C507.927 120.147 506.101 121.305 504.26 120.893C502.42 120.481 501.261 118.655 501.673 116.814C502.085 114.974 503.911 113.815 505.752 114.227Z" fill="#28272C"/>
<path d="M501.762 108.932C502.776 109.159 503.413 110.164 503.187 111.177C502.96 112.191 501.955 112.828 500.941 112.602C499.928 112.375 499.29 111.369 499.517 110.356C499.744 109.343 500.749 108.705 501.762 108.932Z" fill="#28272C"/>
<path d="M509.241 96.7485C509.986 96.9153 510.455 97.655 510.289 98.4005C510.122 99.1461 509.382 99.6152 508.637 99.4483C507.891 99.2815 507.422 98.5419 507.589 97.7963C507.756 97.0508 508.495 96.5817 509.241 96.7485Z" fill="#28272C"/>
<path d="M504.52 106.009C505.265 106.176 505.734 106.915 505.567 107.661C505.401 108.406 504.661 108.875 503.915 108.709C503.17 108.542 502.701 107.802 502.868 107.057C503.034 106.311 503.774 105.842 504.52 106.009Z" fill="#28272C"/>
<path d="M496.588 98.6495C498.545 99.0876 499.777 101.029 499.339 102.987C498.901 104.944 496.959 106.176 495.002 105.738C493.044 105.3 491.813 103.358 492.251 101.401C492.689 99.4432 494.631 98.2115 496.588 98.6495Z" fill="#28272C"/>
<path d="M504.436 98.509C505.92 98.8411 506.854 100.314 506.521 101.798C506.189 103.282 504.717 104.216 503.233 103.884C501.749 103.552 500.815 102.079 501.147 100.595C501.479 99.1108 502.951 98.1768 504.436 98.509Z" fill="#28272C"/>
<path d="M488.423 88.721C491.985 89.5182 494.227 93.052 493.43 96.614C492.632 100.176 489.099 102.418 485.537 101.62C481.975 100.823 479.733 97.2894 480.53 93.7273C481.327 90.1653 484.861 87.9239 488.423 88.721Z" fill="#28272C"/>
<path d="M448.963 84.849C452.525 85.6461 454.767 89.1799 453.97 92.742C453.173 96.304 449.639 98.5454 446.077 97.7483C442.515 96.9511 440.273 93.4173 441.07 89.8553C441.867 86.2932 445.401 84.0518 448.963 84.849Z" fill="#28272C"/>
<path d="M444.192 116.158C445.701 116.496 446.651 117.993 446.313 119.502C445.976 121.011 444.479 121.96 442.97 121.622C441.461 121.285 440.511 119.788 440.849 118.279C441.186 116.77 442.683 115.82 444.192 116.158Z" fill="#28272C"/>
<path d="M444.27 101.379C446.765 101.937 448.335 104.412 447.776 106.907C447.218 109.402 444.743 110.972 442.248 110.414C439.753 109.855 438.183 107.38 438.741 104.885C439.3 102.39 441.775 100.82 444.27 101.379Z" fill="#28272C"/>
<path d="M445.292 125.536C448.854 126.334 451.096 129.867 450.299 133.429C449.502 136.992 445.968 139.233 442.406 138.436C438.844 137.639 436.602 134.105 437.399 130.543C438.197 126.981 441.73 124.739 445.292 125.536Z" fill="#28272C"/>
<path d="M416.51 182.456C413.944 182.534 411.801 180.516 411.724 177.95C411.647 175.384 413.665 173.242 416.231 173.165C418.796 173.088 420.939 175.105 421.016 177.671C421.093 180.237 419.075 182.379 416.51 182.456Z" fill="#28272C"/>
<path d="M445.988 181.707C444.052 181.765 442.436 180.244 442.378 178.308C442.32 176.373 443.842 174.757 445.777 174.698C447.713 174.64 449.329 176.162 449.387 178.098C449.445 180.033 447.923 181.649 445.988 181.707Z" fill="#28272C"/>
<path d="M430.113 176.436C427.902 176.502 426.056 174.764 425.99 172.553C425.923 170.342 427.662 168.496 429.873 168.43C432.083 168.363 433.929 170.102 433.996 172.313C434.062 174.523 432.324 176.369 430.113 176.436Z" fill="#28272C"/>
<path d="M435.101 181.257C433.882 181.294 432.864 180.335 432.827 179.116C432.79 177.897 433.749 176.879 434.968 176.842C436.187 176.806 437.205 177.764 437.242 178.983C437.279 180.203 436.32 181.221 435.101 181.257Z" fill="#28272C"/>
<path d="M459.831 184.265C464.169 186.029 469.115 183.943 470.879 179.606C472.643 175.269 470.557 170.323 466.22 168.558C461.883 166.794 456.937 168.88 455.173 173.217C453.408 177.555 455.494 182.501 459.831 184.265Z" fill="#28272C"/>
<path d="M417.522 171.441C420.426 172.622 423.737 171.225 424.918 168.321C426.099 165.418 424.703 162.107 421.799 160.926C418.895 159.745 415.584 161.141 414.403 164.045C413.222 166.948 414.618 170.259 417.522 171.441Z" fill="#28272C"/>
<mask id="mask0_2_28302" style="mask-type:luminance" maskUnits="userSpaceOnUse" x="0" y="0" width="531" height="74">
<path d="M529.109 -0.000154057L0 8.57959L1.05237 73.4786L530.162 64.8988L529.109 -0.000154057Z" fill="white"/>
</mask>
<g mask="url(#mask0_2_28302)">
<path d="M2.19082 38.3354C13.2683 39.0025 24.3231 39.6624 35.4002 40.307C35.8877 40.3365 36.269 40.7499 36.2469 41.2373L36.2472 41.2523C36.2252 41.7471 35.8118 42.1285 35.3171 42.114C26.2602 41.7589 17.1886 41.419 7.83201 41.0612C7.05974 41.0287 6.6099 41.9352 7.10663 42.534C10.0948 46.1419 12.9146 49.5353 15.7114 52.8991C15.9408 53.1801 16.3171 53.2864 16.6676 53.1833C72.6237 35.7023 129.016 18.2966 188.974 8.73037C231.22 1.99129 272.65 3.11022 311.361 18.1495C346.86 31.9448 369.632 30.6989 425.139 38.6101C433.843 39.8476 445.752 41.4602 462.157 44.9255C491.547 51.1324 514.901 58.9731 530.158 64.6748C529.725 64.7568 529.292 64.8312 528.859 64.9132C528.859 64.9132 528.664 64.9163 528.469 64.897C527.636 64.8206 504.261 58.5162 495.359 56.1131C461.157 47.9013 432.927 43.8785 413.029 41.7286C381.895 38.3598 360.331 38.3798 326.298 28.9964C306.737 23.6042 309.286 22.3341 292.55 18.3347C282.546 15.9419 252.6 9.55682 211.833 12.3832C197.523 13.372 182.266 15.5225 166.292 19.2806C117.97 30.6512 69.8332 42.431 21.6037 54.0099C18.9691 54.6445 16.3038 55.2347 14.5942 55.6221C14.2956 55.6869 13.9794 55.5946 13.7585 55.3734C9.05067 50.602 4.76951 46.2658 0.541504 41.9736C1.09135 40.7659 1.64109 39.5507 2.19094 38.3429L2.19082 38.3354Z" fill="#28272C"/>
</g>
</svg>
